<svg id="Layer_1" data-name="Layer 1" xmlns="http://www.w3.org/2000/svg" viewBox="0 0 401 401">
  <defs>
    <style>
      .cls-1 {
        fill: #b62425;
      }
    </style>
  </defs>
  <title>rose-aperture-twist</title>
  <g>
    <g>
      <path class="cls-1" d="M287.42,143.25c-16.11,26.36-33.78,46.13-51.28,63.37-8-34.39-13-70.63-35.94-113.63a205.3,205.3,0,0,0,19.24-10.12c9.74,8,18.69,15.94,27.11,23.56,9.88,1.66,19.71,2.94,29.69,3.62,4.25,11.78,7.81,22.81,11.17,33.21Z"/>
      <g>
        <path class="cls-1" d="M194.95,84.58a202.6,202.6,0,0,0,23.16-13.4c10,7.92,19.18,15.76,27.8,23.33,8.9,1.18,17.76,2.07,26.69,2.55a466.46,466.46,0,0,0-32.92-69.34C227.59,18.59,214.53,9.25,200.5,0,189.45,13.27,178.57,24.49,167,33.82c-17.27-1.13-35-2.35-53.47-3.4A124.56,124.56,0,0,1,97.32,71.2c37.41,2.7,68.76,8.35,97.62,13.39Z"/>
        <path class="cls-1" d="M204.88,94c10.45,2.12,20.58,4.13,30.59,5.81q-7.54-6.69-15.74-13.56C214.83,89.1,209.89,91.67,204.88,94Z"/>
      </g>
    </g>
    <g>
      <path class="cls-1" d="M318.14,219.44c-8,9.74-15.94,18.69-23.56,27.11h0c-32.24.13-58-5.5-81.8-11.92,25.94-24,54.81-47.33,80.68-86.59a162.61,162.61,0,0,0,17.87,12c-2,11.63-4.2,22.66-6.33,33.31A209,209,0,0,0,318.14,219.44Z"/>
      <g>
        <path class="cls-1" d="M294.61,152.44c3.28,10.09,6.56,19.59,10.27,28.71,1.25-6.28,2.5-12.72,3.69-19.36A160.92,160.92,0,0,1,294.61,152.44Z"/>
        <path class="cls-1" d="M298.14,139.8a155.47,155.47,0,0,0,22.41,14.09c-1.8,11.56-3.75,22.57-5.67,33.2a199.89,199.89,0,0,0,13.27,23.5A555.14,555.14,0,0,0,368,154.49c.88-13.31,1.78-26.92,2.58-41-15.83-3.17-29.38-9.12-42.48-17.26C321.22,80,313.91,61.44,304.31,40.14c-15.93.39-31.71.09-47.56-.64,21.21,40,31.7,72.65,41.38,100.3Z"/>
      </g>
    </g>
    <g>
      <path class="cls-1" d="M293.23,255.12c-1,7-1.79,14-2.27,21.12-11.78,4.25-22.81,7.81-33.21,11.17A173.78,173.78,0,0,0,241,311.33c-11.63-2-22.66-4.2-33.31-6.33h0c-16-27.68-24.44-53-30.82-76.83C210.86,238.72,244.48,252.88,293.23,255.12Z"/>
      <g>
        <path class="cls-1" d="M289.78,258.77c-7.21,7.69-14.07,15-20.4,22.3,6-2,12.24-4,18.69-6.34C288.47,269.38,289.05,264.07,289.78,258.77Z"/>
        <path class="cls-1" d="M369.26,169.53c-22,34.52-45.29,62.32-66.06,85.31h0c-1.13,8.74-1.95,17.47-2.31,26.31-11.6,4.38-22.45,8.07-32.65,11.53a177.07,177.07,0,0,0-15,21.95,565.08,565.08,0,0,0,66.49,7.25c12.47-5.15,26.13-10.79,41.17-17.57-.4-16.58-.06-33,.74-49.48,12.73-16.17,26.15-34.22,39.4-54.33C388.7,190.26,378.16,180.17,369.26,169.53Z"/>
      </g>
    </g>
    <g>
      <path class="cls-1" d="M199.4,308.67c-6,2.83-12,6-17.84,9.46-9.74-8-18.69-15.94-27.11-23.56-9.88-1.66-19.71-2.94-29.69-3.62-4.25-11.78-7.81-22.81-11.17-33.21h0c16-26.6,33.63-46.56,51.08-64C172.28,228.45,176.75,265,199.4,308.67Z"/>
      <g>
        <path class="cls-1" d="M181.27,314.72c4.9-2.81,9.83-5.38,14.83-7.74v0c-10.44-2.12-20.56-4.12-30.56-5.81Q173.06,307.85,181.27,314.72Z"/>
        <path class="cls-1" d="M204.56,317.17h0a202.53,202.53,0,0,0-21.66,12.65c-10-7.92-19.18-15.76-27.8-23.32-8.75-1.16-17.45-2-26.23-2.52a466.08,466.08,0,0,0,33.74,70.29h0C174.34,383.07,187,392.08,200.5,401c11.05-13.27,21.93-24.49,33.5-33.82,17.27,1.13,35,2.35,53.47,3.4a124.57,124.57,0,0,1,16.21-40.78C265.63,327.36,233.88,321.87,204.56,317.17Z"/>
      </g>
    </g>
    <g>
      <path class="cls-1" d="M188.15,166.34c-26.31,23.55-55.54,46.57-82,85.56A160.44,160.44,0,0,0,89.67,241c2-11.63,4.2-22.66,6.33-33.31a209,209,0,0,0-13.14-26.1c8-9.74,15.94-18.69,23.56-27.11h0C138.63,154.32,164.36,159.93,188.15,166.34Z"/>
      <g>
        <path class="cls-1" d="M106,248.28l.38-.54c-3.26-9.89-6.52-19.23-10.21-28.18-1.27,6.38-2.54,12.92-3.75,19.66A160.31,160.31,0,0,1,106,248.28Z"/>
        <path class="cls-1" d="M101.35,260.07a153.32,153.32,0,0,0-20.89-13c1.82-11.65,3.78-22.74,5.71-33.44a199.1,199.1,0,0,0-12.65-22.31,557.72,557.72,0,0,0-40.74,58.43c-.81,12.27-1.63,24.8-2.36,37.69,15.83,3.17,29.38,9.12,42.48,17.26,6.88,16.33,14.19,34.84,23.79,56.14,16.16-.39,32.15-.08,48.23.67-22.19-40.6-33.14-73.64-43.57-101.46Z"/>
      </g>
    </g>
    <g>
      <path class="cls-1" d="M223.55,172.64c-33.81-10.53-67.32-24.53-115.79-26.77,1-7,1.79-14,2.27-21.12,11.78-4.25,22.81-7.81,33.21-11.17A173.78,173.78,0,0,0,160,89.67c11.63,2,22.66,4.2,33.31,6.33h0C209.14,123.63,217.37,148.87,223.55,172.64Z"/>
      <g>
        <path class="cls-1" d="M111.07,143.37c7.56-8.18,14.72-15.93,21.31-23.68-6.25,2-12.72,4.2-19.43,6.58C112.5,132,111.86,137.69,111.07,143.37Z"/>
        <path class="cls-1" d="M97.8,146.16c1.13-8.74,1.95-17.47,2.31-26.31,11.83-4.46,22.87-8.22,33.25-11.74a174.8,174.8,0,0,0,14.51-21.73,565.13,565.13,0,0,0-66.57-7.26C68.84,84.27,55.18,89.91,40.14,96.69c.4,16.58.06,33-.74,49.48C26.67,162.34,13.25,180.39,0,200.5c12.76,10.62,23.62,21.09,32.73,32.16,21.58-34.86,44.58-63.07,65.08-86.5Z"/>
      </g>
    </g>
    <g>
      <path class="cls-1" d="M224.84,188.39c-4.81,4.81-9.65,9.43-14.49,14-2-9.73-3.84-19.5-6.14-29.42q2.92-.58,5.83-1.18,2.77,3,5.49,6,3.79,1.31,7.59,2.57.88,4,1.72,8Z"/>
      <path class="cls-1" d="M229.21,210q-3,2.77-6,5.49h0c-6.59-1.74-13-3.61-19.44-5.49,7.48-6.57,15-13.1,22.5-20.05q1.95,2.23,3.91,4.43-1.24,3.91-2.49,7.77Q228.4,206.12,229.21,210Z"/>
      <path class="cls-1" d="M222.41,217.72q-.92,2.7-1.82,5.4l-8,1.72q-3,2.63-6,5.29l-7.77-2.49h0c-1.81-6.58-3.44-13.1-5-19.59C203.22,211.3,212.64,214.65,222.41,217.72Z"/>
      <path class="cls-1" d="M196.37,228.11,191,229.21q-2.77-3-5.49-6-3.79-1.31-7.59-2.57-.88-4-1.72-8h0c4.79-4.87,9.62-9.55,14.44-14.18C192.44,208.25,194.2,218.1,196.37,228.11Z"/>
      <path class="cls-1" d="M197.26,191c-7.57,6.45-15.21,12.86-22.8,19.7q-1.79-2-3.59-4.07,1.24-3.91,2.49-7.77-.77-3.94-1.57-7.86,3-2.77,6-5.49h0C184.43,187.22,190.87,189.08,197.26,191Z"/>
      <path class="cls-1" d="M207,192.9c-9.37-3.24-18.74-6.57-28.45-9.62q.92-2.7,1.82-5.4l8-1.72q3-2.63,6-5.29l7.77,2.49h0C203.93,179.93,205.51,186.43,207,192.9Z"/>
    </g>
  </g>
</svg>
